#N canvas -1366 23 736 622 10;
#X obj 223 17 ctlin;
#X floatatom 100 61 5 0 0 0 - - -, f 5;
#X text 61 60 Value;
#X floatatom 313 31 5 0 0 0 - - -, f 5;
#X text 346 32 Channel;
#X floatatom 108 17 5 0 0 0 - - -, f 5;
#X text 24 17 # Controller;
#X obj 173 242 spigot;
#X floatatom 173 307 5 0 0 0 - - -, f 5;
#X obj 316 472 dac~;
#X obj 28 241 spigot;
#X obj 61 219 == 1;
#X floatatom 28 312 5 0 0 0 - - -, f 5;
#X obj 28 277 / 127;
#X text 73 204 Modulation;
#X obj 206 220 == 7;
#X obj 312 248 spigot;
#X floatatom 312 300 5 0 0 0 - - -, f 5;
#X obj 312 276 / 127;
#X obj 434 252 spigot;
#X obj 467 230 == 93;
#X obj 434 283 / 127;
#X floatatom 434 306 5 0 0 0 - - -, f 5;
#X obj 345 226 == 91;
#X text 222 207 Volume;
#X text 421 10 Filter Cutoff \, Osc2Pitch and Osc3Pitch go from 0 to
1023, f 28;
#X text 347 211 FXSend1;
#X text 469 215 FXSend2;
#X floatatom 164 530 5 0 0 0 - - -, f 5;
#X obj 340 562 unpack;
#X floatatom 256 595 5 0 0 0 - - -, f 5;
#X floatatom 372 593 5 0 0 0 - - -, f 5;
#X obj 442 442 fiddle~ 2048 1 1 1;
#X obj 435 523 unpack;
#X floatatom 435 573 0 0 0 0 - - -;
#X floatatom 449 550 0 0 0 0 - - -;
#X obj 435 483 route 1 2 3 4;
#X obj 518 523 unpack;
#X floatatom 518 573 0 0 0 0 - - -;
#X floatatom 532 550 0 0 0 0 - - -;
#X obj 602 523 unpack;
#X floatatom 602 573 0 0 0 0 - - -;
#X floatatom 616 550 0 0 0 0 - - -;
#X text 573 486 comment;
#X obj 173 266 / 127;
#X obj 173 286 * 6;
#N canvas 0 23 900 618 LeapmotionOSC 1;
#X obj 140 8 loadbang;
#X obj 140 52 netreceive -u -b;
#X obj 140 74 oscparse;
#X obj 140 96 list trim;
#X floatatom 270 255 5 0 0 0 - - -, f 5;
#X floatatom 365 256 5 0 0 0 - - -, f 5;
#X floatatom 49 254 5 0 0 0 - - -, f 5;
#X msg 140 30 listen 8081;
#X obj 140 132 route LM_descriptors;
#X obj 294 179 route hand_R;
#X obj 59 180 route hand_L;
#X obj 270 211 route position;
#X obj 365 211 route roll;
#X obj 365 236 unpack f;
#X obj 15 210 route position;
#X obj 270 274 s bow_pressure;
#X obj 365 275 s bow_position;
#X obj 106 275 s bow_velocity;
#X obj 304 254 * 5;
#X obj 15 231 unpack f f f;
#X floatatom 139 254 5 0 0 0 - - -, f 5;
#X floatatom 9 254 5 0 0 0 - - -, f 5;
#X obj 270 235 unpack f f f;
#X obj 7 280 s string_length;
#X connect 0 0 7 0;
#X connect 1 0 2 0;
#X connect 2 0 3 0;
#X connect 3 0 8 0;
#X connect 4 0 15 0;
#X connect 5 0 16 0;
#X connect 6 0 17 0;
#X connect 7 0 1 0;
#X connect 8 0 9 0;
#X connect 8 0 10 0;
#X connect 9 0 11 0;
#X connect 9 0 12 0;
#X connect 10 0 14 0;
#X connect 11 0 22 0;
#X connect 12 0 13 0;
#X connect 13 0 5 0;
#X connect 14 0 19 0;
#X connect 18 0 4 0;
#X connect 19 0 21 0;
#X connect 19 1 6 0;
#X connect 19 2 20 0;
#X connect 21 0 23 0;
#X connect 22 1 18 0;
#X restore 565 220 pd LeapmotionOSC;
#N canvas 322 23 432 608 myoOSC 0;
#X obj 254 458 f;
#X obj 221 484 +;
#X floatatom 249 507 5 0 0 0 - - -, f 5;
#X obj 137 468 t b b;
#X obj 309 466 t b b;
#X msg 259 567 \$1;
#X obj 259 527 mod 4;
#X obj 259 547 + 6;
#X msg 335 488 1;
#X obj 288 431 r next;
#X obj 178 431 r prev;
#X msg 155 495 -1;
#X obj 203 587 s preset;
#X obj 11 6 loadbang;
#X obj 11 50 netreceive -u -b;
#X obj 11 72 oscparse;
#X obj 11 94 list trim;
#X obj 63 121 route myo;
#X obj 23 154 route orientation;
#X obj 52 196 route accel;
#X obj 81 240 route gyro;
#X obj 119 283 route pose;
#X obj 119 312 print;
#X obj 119 349 list split 1;
#X obj 110 523 r preset;
#X obj 153 373 select waveOut fingersSpread fist;
#X obj 178 403 s prev;
#X obj 288 403 s next;
#X text 195 283 Pose selects preset;
#X obj 291 325 s thunder;
#N canvas 1874 23 595 504 MyoToSynth 0;
#X obj 50 18 inlet;
#X obj 209 18 inlet;
#X obj 361 18 inlet;
#X obj 118 333 f;
#X obj 133 313 r preset;
#X floatatom 118 353 5 0 0 0 - - -, f 5;
#X obj 115 313 bng 15 250 50 0 empty empty empty 17 7 0 10 -262144
-1 -1;
#X obj 88 288 t f b;
#X obj 34 45 unpack s f f f;
#X obj 103 427 spigot;
#X obj 127 401 tgl 15 0 empty empty empty 17 7 0 10 -262144 -1 -1 0
1;
#X obj 118 375 == 8;
#X obj 488 18 inlet;
#X text 488 1 preset;
#X obj 43 135 hsl 64 15 -1.5 1.5 0 0 empty empty -1.5..1.5 -2 -8 0
10 -262144 -1 -1 0 1;
#X obj 43 77 hsl 64 15 -3 3 0 0 empty empty -3..3 -2 -8 0 10 -262144
-1 -1 0 1;
#X obj 43 106 hsl 64 15 -1.5 1.5 0 0 empty empty -1.5..1.5 -2 -8 0
10 -262144 -1 -1 0 1;
#X text 31 1 orientation;
#X text 209 1 accel;
#X text 364 1 gyro;
#X obj 185 45 unpack s f f f;
#X obj 194 135 hsl 64 15 -1.5 1.5 0 0 empty empty -3..3 -2 -8 0 10
-262144 -1 -1 0 1;
#X obj 194 77 hsl 64 15 -3 3 0 0 empty empty -3..3 -2 -8 0 10 -262144
-1 -1 0 1;
#X obj 194 106 hsl 64 15 -3 3 0 0 empty empty -3..3 -2 -8 0 10 -262144
-1 -1 0 1;
#X obj 334 46 unpack s f f f;
#X obj 364 136 hsl 64 15 -500 500 0 0 empty empty empty -2 -8 0 10
-262144 -1 -1 0 1;
#X obj 364 78 hsl 64 15 -500 500 0 0 empty empty empty -2 -8 0 10 -262144
-1 -1 0 1;
#X obj 364 107 hsl 64 15 -500 500 0 0 empty empty empty -2 -8 0 10
-262144 -1 -1 0 1;
#X floatatom 437 93 5 0 0 0 - - -, f 5;
#X floatatom 437 122 5 0 0 0 - - -, f 5;
#X floatatom 437 151 5 0 0 0 - - -, f 5;
#X floatatom 264 150 5 0 0 0 - - -, f 5;
#X floatatom 264 121 5 0 0 0 - - -, f 5;
#X floatatom 265 92 5 0 0 0 - - -, f 5;
#X floatatom 397 427 5 0 0 0 - - -, f 5;
#X floatatom 111 106 5 0 0 0 - - -, f 5;
#X obj 442 427 hsl 128 15 0 2 0 0 empty empty empty -2 -8 0 10 -262144
-1 -1 0 1;
#X obj 29 373 abs;
#X floatatom 65 479 5 0 0 0 - - -, f 5;
#X floatatom 488 42 5 0 0 0 - - -, f 5;
#X text 151 338 example: filtering;
#X text 151 353 a value for some preset \,;
#X text 151 368 let's say \, preset 8;
#X obj 308 387 expr (abs($f1) + abs($f2) + abs($f3))/1000.0;
#X obj 311 422 / 3;
#X obj 308 448 s throw_drops;
#X floatatom 111 134 5 0 0 0 - - -, f 5;
#X floatatom 111 77 5 0 0 0 - - -, f 5;
#X floatatom 139 226 5 0 0 0 - - -, f 5;
#X floatatom 16 218 5 0 0 0 - - -, f 5;
#X obj 43 163 exp fabs($f1)*2.45;
#X obj 16 237 s w_speed;
#X obj 180 247 s r_color;
#X obj 242 307 s r_amount;
#X floatatom 292 259 5 0 0 0 - - -, f 5;
#X obj 16 199 expr -0.2 + $f1 *2.45;
#X obj 272 231 expr (-$f1 + 0.5)*2.2 - 1.5;
#X obj 132 181 expr (0.3 - $f1)/0.6*9000;
#X connect 0 0 8 0;
#X connect 1 0 20 0;
#X connect 2 0 24 0;
#X connect 3 0 5 0;
#X connect 4 0 3 1;
#X connect 5 0 11 0;
#X connect 6 0 3 0;
#X connect 7 0 9 0;
#X connect 7 0 37 0;
#X connect 7 1 6 0;
#X connect 8 1 15 0;
#X connect 8 1 47 0;
#X connect 8 2 7 0;
#X connect 8 2 16 0;
#X connect 8 2 35 0;
#X connect 8 3 14 0;
#X connect 8 3 46 0;
#X connect 9 0 38 0;
#X connect 10 0 9 1;
#X connect 11 0 10 0;
#X connect 12 0 39 0;
#X connect 20 1 22 0;
#X connect 20 2 23 0;
#X connect 20 3 21 0;
#X connect 21 0 31 0;
#X connect 22 0 33 0;
#X connect 23 0 32 0;
#X connect 24 1 26 0;
#X connect 24 2 27 0;
#X connect 24 3 25 0;
#X connect 25 0 30 0;
#X connect 25 0 43 2;
#X connect 26 0 28 0;
#X connect 26 0 43 0;
#X connect 27 0 29 0;
#X connect 27 0 43 1;
#X connect 35 0 57 0;
#X connect 37 0 38 0;
#X connect 43 0 34 0;
#X connect 43 0 36 0;
#X connect 43 0 44 0;
#X connect 44 0 45 0;
#X connect 46 0 50 0;
#X connect 46 0 55 0;
#X connect 47 0 56 0;
#X connect 48 0 52 0;
#X connect 49 0 51 0;
#X connect 55 0 49 0;
#X connect 56 0 53 0;
#X connect 56 0 54 0;
#X connect 57 0 48 0;
#X restore 23 551 pd MyoToSynth;
#X msg 11 28 listen 8080;
#X connect 0 0 1 0;
#X connect 1 0 2 0;
#X connect 2 0 0 1;
#X connect 2 0 6 0;
#X connect 3 1 11 0;
#X connect 3 1 0 0;
#X connect 4 0 0 0;
#X connect 4 1 8 0;
#X connect 5 0 12 0;
#X connect 5 0 30 3;
#X connect 6 0 7 0;
#X connect 7 0 5 0;
#X connect 8 0 1 1;
#X connect 9 0 4 0;
#X connect 10 0 3 0;
#X connect 11 0 1 1;
#X connect 13 0 31 0;
#X connect 14 0 15 0;
#X connect 15 0 16 0;
#X connect 16 0 17 0;
#X connect 17 0 18 0;
#X connect 17 0 19 0;
#X connect 17 0 20 0;
#X connect 17 0 21 0;
#X connect 18 0 30 0;
#X connect 19 0 30 1;
#X connect 20 0 30 2;
#X connect 21 0 23 0;
#X connect 21 0 22 0;
#X connect 23 1 25 0;
#X connect 24 0 30 3;
#X connect 25 0 26 0;
#X connect 25 0 3 0;
#X connect 25 1 26 0;
#X connect 25 1 3 0;
#X connect 25 2 27 0;
#X connect 25 2 4 0;
#X connect 25 2 29 0;
#X connect 31 0 14 0;
#X restore 584 249 pd myoOSC;
#X obj 324 335 r bow_pressure;
#X obj 450 338 r bow_position;
#X obj 46 332 r bow_velocity;
#X obj 212 317 hsl 128 15 0 3 0 0 empty empty empty -2 -8 0 10 -86853
-1 -1 0 1;
#X floatatom 208 336 5 0 0 0 - - -, f 5;
#X msg 28 353 bowVelocity \$1;
#X msg 173 356 stringLength \$1;
#X msg 312 356 bowPressure \$1;
#X msg 435 358 bowPosition \$1;
#X obj 211 263 r string_length;
#X obj 175 569 mtof;
#X floatatom 28 443 5 0 0 0 - - -, f 5;
#X obj 366 445 *~;
#X obj 301 447 *~;
#X obj 59 526 line 0 5;
#X obj 28 462 moses 0.0001;
#X msg 73 497 1 15;
#N canvas 566 23 649 582 KinectOSC 1;
#X obj 273 8 loadbang;
#X obj 273 52 netreceive -u -b;
#X obj 273 74 oscparse;
#X obj 273 96 list trim;
#X msg 273 30 listen 8082;
#X obj 273 116 route skeleton;
#X obj 278 326 route hip_center;
#X obj 291 263 route spine;
#X obj 264 207 route shoulder_center;
#X obj 291 166 route head;
#X obj 130 207 route shoulder_left;
#X obj 101 275 route elbow_left;
#X obj 92 342 route wrist_left;
#X obj 49 383 route hand_left;
#X obj 230 351 route hip_left;
#X obj 330 352 route hip_right;
#X obj 484 375 route hand_right;
#X obj 455 335 route wrist_right;
#X obj 446 271 route elbow_right;
#X obj 413 207 route shoulder_right;
#X obj 209 418 route knee_left;
#X obj 353 419 route knee_right;
#X obj 361 491 route ankle_right;
#X obj 199 491 route ankle_left;
#X obj 145 528 route foot_left;
#X obj 399 531 route foot_right;
#X connect 0 0 4 0;
#X connect 1 0 2 0;
#X connect 2 0 3 0;
#X connect 3 0 5 0;
#X connect 4 0 1 0;
#X connect 5 0 6 0;
#X connect 5 0 7 0;
#X connect 5 0 8 0;
#X connect 5 0 9 0;
#X connect 5 0 10 0;
#X connect 5 0 11 0;
#X connect 5 0 12 0;
#X connect 5 0 13 0;
#X connect 5 0 14 0;
#X connect 5 0 15 0;
#X connect 5 0 16 0;
#X connect 5 0 17 0;
#X connect 5 0 18 0;
#X connect 5 0 19 0;
#X connect 5 0 20 0;
#X connect 5 0 21 0;
#X connect 5 0 22 0;
#X connect 5 0 23 0;
#X connect 5 0 24 0;
#X connect 5 0 25 0;
#X restore 576 278 pd KinectOSC;
#X msg 28 498 0 30;
#X obj 241 289 / 6;
#X obj 274 294 + 0.5;
#X obj 242 414 violin_FaustRomainChion~;
#X connect 0 0 1 0;
#X connect 0 0 7 0;
#X connect 0 0 10 0;
#X connect 0 0 16 0;
#X connect 0 0 19 0;
#X connect 0 1 11 0;
#X connect 0 1 15 0;
#X connect 0 1 5 0;
#X connect 0 1 20 0;
#X connect 0 1 23 0;
#X connect 0 2 3 0;
#X connect 7 0 44 0;
#X connect 8 0 54 0;
#X connect 10 0 13 0;
#X connect 11 0 10 1;
#X connect 12 0 53 0;
#X connect 13 0 12 0;
#X connect 15 0 7 1;
#X connect 16 0 18 0;
#X connect 17 0 55 0;
#X connect 18 0 17 0;
#X connect 19 0 21 0;
#X connect 20 0 19 1;
#X connect 21 0 22 0;
#X connect 22 0 56 0;
#X connect 23 0 16 1;
#X connect 28 0 58 0;
#X connect 29 0 30 0;
#X connect 29 1 31 0;
#X connect 32 0 28 0;
#X connect 32 4 36 0;
#X connect 33 0 34 0;
#X connect 33 1 35 0;
#X connect 36 0 33 0;
#X connect 36 1 37 0;
#X connect 36 2 40 0;
#X connect 37 0 38 0;
#X connect 37 1 39 0;
#X connect 40 0 41 0;
#X connect 40 1 42 0;
#X connect 44 0 45 0;
#X connect 45 0 8 0;
#X connect 48 0 55 0;
#X connect 49 0 56 0;
#X connect 50 0 53 0;
#X connect 50 0 59 0;
#X connect 51 0 54 0;
#X connect 51 0 52 0;
#X connect 52 0 54 0;
#X connect 53 0 69 0;
#X connect 54 0 69 0;
#X connect 55 0 69 0;
#X connect 56 0 69 0;
#X connect 57 0 67 0;
#X connect 58 0 30 0;
#X connect 59 0 63 0;
#X connect 60 0 9 1;
#X connect 61 0 9 0;
#X connect 62 0 60 0;
#X connect 62 0 61 0;
#X connect 63 0 66 0;
#X connect 63 1 64 0;
#X connect 64 0 62 0;
#X connect 66 0 62 0;
#X connect 67 0 68 0;
#X connect 68 0 51 0;
#X connect 69 1 61 1;
#X connect 69 2 60 1;
#X connect 69 2 32 0;
