#N canvas 0 0 450 300 10;
#X obj 10 210 inlet;
#X obj 130 210 r \$0-read;
#X obj 130 240 faust-control \$0;
#X obj 130 270 s \$0-write;
#X obj 10 270 r \$0-in;
#X obj 10 300 violin_FaustRomainChion~;
#X obj 10 330 s \$0-out;
#X obj 70 360 outlet~;
#X obj 130 360 outlet~;
#X obj 10 360 outlet;
#X connect 0 0 2 0;
#X connect 1 0 2 0;
#X connect 2 0 3 0;
#X connect 5 0 6 0;
#X connect 0 0 9 0;
#X connect 4 0 5 0;
#X connect 5 1 7 0;
#X connect 5 2 8 0;
#X obj 10 30 hsl 128 15 0 1 0 0 \$0-violin-FaustRomainChion/bowPosition \$0-violin-FaustRomainChion/bowPosition bowPosition -2 -6 0 10 -262144 -1 -1 0 1;
#X obj 160 30 nbx 5 14 0 1 0 0 \$0-violin-FaustRomainChion/bowPosition \$0-violin-FaustRomainChion/bowPosition empty 0 -6 0 10 -262144 -1 -1 256;
#X obj 10 60 hsl 128 15 0 1 0 0 \$0-violin-FaustRomainChion/bowPressure \$0-violin-FaustRomainChion/bowPressure bowPressure -2 -6 0 10 -262144 -1 -1 0 1;
#X obj 160 60 nbx 5 14 0 1 0 0 \$0-violin-FaustRomainChion/bowPressure \$0-violin-FaustRomainChion/bowPressure empty 0 -6 0 10 -262144 -1 -1 256;
#X obj 10 90 hsl 128 15 0 1 0 0 \$0-violin-FaustRomainChion/bowVelocity \$0-violin-FaustRomainChion/bowVelocity bowVelocity -2 -6 0 10 -262144 -1 -1 0 1;
#X obj 160 90 nbx 5 14 0 1 0 0 \$0-violin-FaustRomainChion/bowVelocity \$0-violin-FaustRomainChion/bowVelocity empty 0 -6 0 10 -262144 -1 -1 256;
#X obj 10 120 hsl 128 15 0 3 0 0 \$0-violin-FaustRomainChion/stringLength \$0-violin-FaustRomainChion/stringLength stringLength -2 -6 0 10 -262144 -1 -1 0 1;
#X obj 160 120 nbx 5 14 0 3 0 0 \$0-violin-FaustRomainChion/stringLength \$0-violin-FaustRomainChion/stringLength empty 0 -6 0 10 -262144 -1 -1 256;
#X obj 197 3 bng 15 250 50 1 \$0-init \$0-ignore empty 0 -6 0 10 -262144 -1 -1;
#X obj 217 3 tgl 15 1 \$0-active \$0-active empty 0 -6 0 10 -262144 -1 -1 1 1;
#X obj 450 10 r \$0-init;
#X obj 802 10 s \$0-in;
#X obj 978 10 s \$0-read;
#X obj 1154 10 r \$0-write;
#X msg 450 30 1;
#X obj 450 50 s \$0-active;
#X connect 24 0 25 0;
#X obj 802 30 r \$0-active;
#X msg 802 50 active \$1;
#X connect 26 0 27 0;
#X connect 27 0 21 0;
#X obj 1154 30 route active;
#X obj 1154 50 s \$0-active;
#X connect 23 0 28 0;
#X connect 28 0 29 0;
#X msg 450 70 0.5;
#X obj 450 90 s \$0-violin-FaustRomainChion/bowPosition;
#X connect 20 0 30 0;
#X connect 30 0 31 0;
#X obj 802 70 r \$0-violin-FaustRomainChion/bowPosition;
#X msg 802 90 /violin-FaustRomainChion/bowPosition \$1;
#X connect 32 0 33 0;
#X connect 33 0 21 0;
#X obj 1154 70 route /violin-FaustRomainChion/bowPosition;
#X obj 1154 90 s \$0-violin-FaustRomainChion/bowPosition;
#X connect 28 1 34 0;
#X connect 34 0 35 0;
#X msg 450 110 0.5;
#X obj 450 130 s \$0-violin-FaustRomainChion/bowPressure;
#X connect 20 0 36 0;
#X connect 36 0 37 0;
#X obj 802 110 r \$0-violin-FaustRomainChion/bowPressure;
#X msg 802 130 /violin-FaustRomainChion/bowPressure \$1;
#X connect 38 0 39 0;
#X connect 39 0 21 0;
#X obj 1154 110 route /violin-FaustRomainChion/bowPressure;
#X obj 1154 130 s \$0-violin-FaustRomainChion/bowPressure;
#X connect 34 1 40 0;
#X connect 40 0 41 0;
#X msg 450 150 0.5;
#X obj 450 170 s \$0-violin-FaustRomainChion/bowVelocity;
#X connect 20 0 42 0;
#X connect 42 0 43 0;
#X obj 802 150 r \$0-violin-FaustRomainChion/bowVelocity;
#X msg 802 170 /violin-FaustRomainChion/bowVelocity \$1;
#X connect 44 0 45 0;
#X connect 45 0 21 0;
#X obj 1154 150 route /violin-FaustRomainChion/bowVelocity;
#X obj 1154 170 s \$0-violin-FaustRomainChion/bowVelocity;
#X connect 40 1 46 0;
#X connect 46 0 47 0;
#X msg 450 190 0.5;
#X obj 450 210 s \$0-violin-FaustRomainChion/stringLength;
#X connect 20 0 48 0;
#X connect 48 0 49 0;
#X obj 802 190 r \$0-violin-FaustRomainChion/stringLength;
#X msg 802 210 /violin-FaustRomainChion/stringLength \$1;
#X connect 50 0 51 0;
#X connect 51 0 21 0;
#X obj 1154 190 route /violin-FaustRomainChion/stringLength;
#X obj 1154 210 s \$0-violin-FaustRomainChion/stringLength;
#X connect 46 1 52 0;
#X connect 52 0 53 0;
#X coords 0 -1 1 1 235 140 1 0 0;
#X text 0 160 Generated Fri Apr 12 23:35:04 2019 by faust2pd v2.16. See http://faust.grame.fr and http://purelang.bitbucket.org.;
